{"title":"2010.06.06-MotoGP.05.Italy.Race.BBC2_UK [TDMK1]","uid":5610600,"size":624141626,"categoryP":"video","categoryS":"tv_shows","magnet":"?xt=urn:btih:2cb47eeafb01167ecda545d6ed5b21989d1ea863&amp;dn=2010.06.06-MotoGP.05.Italy.Race.BBC2_UK+%5BTDMK1%5D&amp;tr=udp%3A%2F%2Ftracker.openbittorrent.com%3A80&amp;tr=udp%3A%2F%2Fopen.demonii.com%3A1337&amp;tr=udp%3A%2F%2Ftracker.coppersurfer.tk%3A6969&amp;tr=udp%3A%2F%2Fexodus.desync.com%3A6969","seeders":1,"leechers":0,"uploader":"tdmk1","files":-1,"time":1275846255,"description":"2010.06.06-MotoGP.05.Italy.Race.BBC2_UK-TDMK1.m4v\n\nThe Italian Grand Prix. Jennie Gow introduces coverage of the fourth race of the season, held at Mugello, where Valentino Rossi is expected to receive a rapturous reception from his home fans. The world champion has won this race on seven occasions, but his run of victories was ended last year by Australian Casey Stoner. Commentary by Charlie Cox and Steve Parrish.\n\nMP4 - 640x352 - 800Kb/s H264 Video - 44.1KHz/128Kbps Stereo AAC Audio\n\nMy belief is this is the best all round setup, and hopefully you will agree!\n\nThis video will play on a computer with VLC, XBMC, XBox360, PS3, all iPhones &amp; iPad - enjoy the show... :)\n\nGeneral\nComplete name                    : 2010.06.06-MotoGP.05.Italy.Race.BBC2_UK-TDMK1.m4v\nFormat                           : MPEG-4\nFormat profile                   : Base Media / Version 2\nCodec ID                         : mp42\nFile size                        : 595 MiB\nDuration                         : 1h 28mn\nOverall bit rate                 : 935 Kbps\nEncoded date                     : UTC 2010-06-06 13:29:40\nTagged date                      : UTC 2010-06-06 15:05:22\nWriting application              : HandBrake 0.9.4 2009112300\n\nVideo\nID                               : 1\nFormat                           : AVC\nFormat/Info                      : Advanced Video Codec\nFormat profile                   : &lt;a class=&quot;__cf_email__&quot; href=&quot;/cdn-cgi/l/email-protection&quot; data-cfemail=&quot;3578545c5b7579061b05&quot;&gt;[email&amp;#160;protected]&lt;/a&gt;&lt;script cf-hash='f9e31' type=&quot;text/javascript&quot;&gt;\n/* &lt;![CDATA[ */!function(){try{var t=&quot;currentScript&quot;in document?document.currentScript:function(){for(var t=document.getElementsByTagName(&quot;script&quot;),e=t.length;e--;)if(t[e].getAttribute(&quot;cf-hash&quot;))return t[e]}();if(t&amp;&amp;t.previousSibling){var e,r,n,i,c=t.previousSibling,a=c.getAttribute(&quot;data-cfemail&quot;);if(a){for(e=&quot;&quot;,r=parseInt(a.substr(0,2),16),n=2;a.length-n;n+=2)i=parseInt(a.substr(n,2),16)^r,e+=String.fromCharCode(i);e=document.createTextNode(e),c.parentNode.replaceChild(e,c)}}}catch(u){}}();/* ]]&gt; */&lt;/script&gt;\nFormat settings, CABAC           : Yes\nFormat settings, ReFrames        : 2 frames\nCodec ID                         : avc1\nCodec ID/Info                    : Advanced Video Coding\nDuration                         : 1h 28mn\nBit rate mode                    : Variable\nBit rate                         : 800 Kbps\nWidth                            : 640 pixels\nHeight                           : 352 pixels\nDisplay aspect ratio             : 16:9\nFrame rate mode                  : Variable\nFrame rate                       : 25.000 fps\nMinimum frame rate               : 12.498 fps\nMaximum frame rate               : 25.000 fps\nResolution                       : 8 bits\nColorimetry                      : 4:2:0\nScan type                        : Progressive\nBits/(Pixel*Frame)               : 0.142\nStream size                      : 511 MiB (86%)\nWriting library                  : x264 core 79\nEncoding settings                : cabac=1 / ref=2 / deblock=1:0:0 / analyse=0x1:0x111 / me=hex / subme=6 / psy=1 / psy_rd=1.0:0.0 / mixed_ref=0 / me_range=16 / chroma_me=1 / trellis=0 / 8x8dct=0 / cqm=0 / deadzone=21,11 / chroma_qp_offset=-2 / threads=6 / nr=0 / decimate=1 / mbaff=0 / constrained_intra=0 / bframes=2 / b_pyramid=0 / b_adapt=1 / b_bias=0 / direct=1 / wpredb=0 / wpredp=2 / keyint=250 / keyint_min=25 / scenecut=40 / rc_lookahead=40 / rc=abr / mbtree=1 / bitrate=800 / ratetol=1.0 / qcomp=0.60 / qpmin=10 / qpmax=51 / qpstep=4 / ip_ratio=1.40 / aq=1:1.00\nEncoded date                     : UTC 2010-06-06 13:29:40\nTagged date                      : UTC 2010-06-06 15:05:22\nColor primaries                  : BT.601-6 525, BT.1358 525, BT.1700 NTSC, SMPTE 170M\nTransfer characteristics         : BT.709-5, BT.1361\nMatrix coefficients              : BT.601-6 525, BT.1358 525, BT.1700 NTSC, SMPTE 170M\n\nAudio\nID                               : 2\nFormat                           : AAC\nFormat/Info                      : Advanced Audio Codec\nFormat version                   : Version 4\nFormat profile                   : LC\nFormat settings, SBR             : No\nCodec ID                         : 40\nDuration                         : 1h 28mn\nBit rate mode                    : Variable\nBit rate                         : 128 Kbps\nMaximum bit rate                 : 159 Kbps\nChannel(s)                       : 2 channels\nChannel positions                : Front: L R\nSampling rate                    : 44.1 KHz\nStream size                      : 81.5 MiB (14%)\nLanguage                         : English\nEncoded date                     : UTC 2010-06-06 13:29:40\nTagged date                      : UTC 2010-06-06 15:05:22\n\n","torrent":{"xt":"urn:btih:2cb47eeafb01167ecda545d6ed5b21989d1ea863","amp;dn":"2010.06.06-MotoGP.05.Italy.Race.BBC2_UK+%5BTDMK1%5D","amp;tr":["udp%3A%2F%2Ftracker.openbittorrent.com%3A80","udp%3A%2F%2Fopen.demonii.com%3A1337","udp%3A%2F%2Ftracker.coppersurfer.tk%3A6969","udp%3A%2F%2Fexodus.desync.com%3A6969"],"infoHash":"2cb47eeafb01167ecda545d6ed5b21989d1ea863","infoHashBuffer":{"type":"Buffer","data":[44,180,126,234,251,1,22,126,205,165,69,214,237,91,33,152,157,30,168,99]},"announce":[],"urlList":[]}}